HIERARCHY
ROOT Hips
{
	OFFSET 0.000000 0.049311 0.877000
	CHANNELS 6 Xposition Yposition Zposition Xrotation Yrotation Zrotation
	JOINT LHipJoint
	{
		OFFSET 0.000000 0.000000 0.000000
		CHANNELS 6 Xposition Yposition Zposition Xrotation Yrotation Zrotation
		JOINT LeftUpLeg
		{
			OFFSET 0.101380 0.008274 -0.008086
			CHANNELS 6 Xposition Yposition Zposition Xrotation Yrotation Zrotation
			JOINT LeftLeg
			{
				OFFSET 0.013850 -0.032449 -0.392864
				CHANNELS 6 Xposition Yposition Zposition Xrotation Yrotation Zrotation
				JOINT LeftFoot
				{
					OFFSET 0.009830 0.014700 -0.407220
					CHANNELS 6 Xposition Yposition Zposition Xrotation Yrotation Zrotation
					JOINT LeftToeBase
					{
						OFFSET 0.012880 -0.130788 -0.044930
						CHANNELS 6 Xposition Yposition Zposition Xrotation Yrotation Zrotation
						End Site
						{
							OFFSET 0.001552 -0.018099 -0.002515
						}
					}
				}
			}
		}
	}
	JOINT LowerBack
	{
		OFFSET 0.000000 0.038733 0.079770
		CHANNELS 6 Xposition Yposition Zposition Xrotation Yrotation Zrotation
		JOINT Spine
		{
			OFFSET 0.000000 -0.017149 0.141310
			CHANNELS 6 Xposition Yposition Zposition Xrotation Yrotation Zrotation
			JOINT Spine1
			{
				OFFSET 0.000000 0.010320 0.143920
				CHANNELS 6 Xposition Yposition Zposition Xrotation Yrotation Zrotation
				JOINT LeftShoulder
				{
					OFFSET 0.022736 -0.040321 0.103830
					CHANNELS 6 Xposition Yposition Zposition Xrotation Yrotation Zrotation
					JOINT LeftArm
					{
						OFFSET 0.153024 0.002309 0.011300
						CHANNELS 6 Xposition Yposition Zposition Xrotation Yrotation Zrotation
						JOINT LeftForeArm
						{
							OFFSET 0.241950 0.007860 -0.005970
							CHANNELS 6 Xposition Yposition Zposition Xrotation Yrotation Zrotation
							JOINT LeftHand
							{
								OFFSET 0.238400 -0.007281 0.006770
								CHANNELS 6 Xposition Yposition Zposition Xrotation Yrotation Zrotation
								JOINT LThumb
								{
									OFFSET 0.033730 -0.028850 -0.003480
									CHANNELS 6 Xposition Yposition Zposition Xrotation Yrotation Zrotation
									End Site
									{
										OFFSET 0.009756 -0.017944 -0.023132
									}
								}
								JOINT LeftFingerBase
								{
									OFFSET 0.031340 -0.007202 -0.002430
									CHANNELS 6 Xposition Yposition Zposition Xrotation Yrotation Zrotation
									JOINT LeftHandFinger1
									{
										OFFSET 0.068120 -0.030195 0.004970
										CHANNELS 6 Xposition Yposition Zposition Xrotation Yrotation Zrotation
										End Site
										{
											OFFSET 0.025669 -0.000311 -0.002906
										}
									}
								}
							}
						}
					}
				}
				JOINT Neck
				{
					OFFSET 0.000000 -0.023813 0.174980
					CHANNELS 6 Xposition Yposition Zposition Xrotation Yrotation Zrotation
					JOINT Neck1
					{
						OFFSET 0.000000 -0.019587 0.050440
						CHANNELS 6 Xposition Yposition Zposition Xrotation Yrotation Zrotation
						JOINT Head
						{
							OFFSET 0.000000 -0.019588 0.050430
							CHANNELS 6 Xposition Yposition Zposition Xrotation Yrotation Zrotation
							End Site
							{
								OFFSET 0.000000 0.006934 0.147750
							}
						}
					}
				}
				JOINT RightShoulder
				{
					OFFSET -0.022736 -0.040321 0.103830
					CHANNELS 6 Xposition Yposition Zposition Xrotation Yrotation Zrotation
					JOINT RightArm
					{
						OFFSET -0.153024 0.002309 0.011300
						CHANNELS 6 Xposition Yposition Zposition Xrotation Yrotation Zrotation
						JOINT RightForeArm
						{
							OFFSET -0.241950 0.007860 -0.005970
							CHANNELS 6 Xposition Yposition Zposition Xrotation Yrotation Zrotation
							JOINT RightHand
							{
								OFFSET -0.238400 -0.007281 0.006770
								CHANNELS 6 Xposition Yposition Zposition Xrotation Yrotation Zrotation
								JOINT RThumb
								{
									OFFSET -0.033730 -0.028850 -0.003480
									CHANNELS 6 Xposition Yposition Zposition Xrotation Yrotation Zrotation
									End Site
									{
										OFFSET -0.009752 -0.017943 -0.023134
									}
								}
								JOINT RightFingerBase
								{
									OFFSET -0.031340 -0.007202 -0.002430
									CHANNELS 6 Xposition Yposition Zposition Xrotation Yrotation Zrotation
									JOINT RightHandFinger1
									{
										OFFSET -0.068120 -0.030195 0.004970
										CHANNELS 6 Xposition Yposition Zposition Xrotation Yrotation Zrotation
										End Site
										{
											OFFSET -0.025669 -0.000311 -0.002906
										}
									}
								}
							}
						}
					}
				}
			}
		}
	}
	JOINT RHipJoint
	{
		OFFSET 0.000000 0.000000 0.000000
		CHANNELS 6 Xposition Yposition Zposition Xrotation Yrotation Zrotation
		JOINT RightUpLeg
		{
			OFFSET -0.101380 0.008274 -0.008086
			CHANNELS 6 Xposition Yposition Zposition Xrotation Yrotation Zrotation
			JOINT RightLeg
			{
				OFFSET -0.013850 -0.032449 -0.392864
				CHANNELS 6 Xposition Yposition Zposition Xrotation Yrotation Zrotation
				JOINT RightFoot
				{
					OFFSET -0.009830 0.014699 -0.407220
					CHANNELS 6 Xposition Yposition Zposition Xrotation Yrotation Zrotation
					JOINT RightToeBase
					{
						OFFSET -0.012880 -0.130787 -0.044930
						CHANNELS 6 Xposition Yposition Zposition Xrotation Yrotation Zrotation
						End Site
						{
							OFFSET -0.001552 -0.018099 -0.002515
						}
					}
				}
			}
		}
	}
}
MOTION
Frames: 6
Frame Time: 0.041667
0.654522 2.182945 0.881860 13.843323 -6.414960 -49.601134 0.000000 0.000000 -0.000000 0.000017 0.000031 -0.000010 0.101380 0.008274 -0.008086 -29.682342 -0.378648 8.190375 0.013850 -0.032449 -0.392864 49.900915 0.546247 0.978078 0.009830 0.014700 -0.407220 -19.583177 -8.472594 20.523878 0.012880 -0.130788 -0.044930 -0.000001 -0.000000 0.000000 0.000000 0.038733 0.079770 9.934160 -0.352103 3.428336 0.000000 -0.017149 0.141310 -0.000002 0.000001 -0.000001 0.000000 0.010320 0.143920 -5.178093 -4.285402 0.713216 0.022736 -0.040321 0.103830 2.589504 16.392167 -10.684916 0.153024 0.002309 0.011300 -2.969026 66.013976 -3.629140 0.241950 0.007860 -0.005970 -7.364057 -16.641322 -39.312110 0.238400 -0.007281 0.006770 7.913667 -5.416842 5.795147 0.033730 -0.028850 -0.003480 0.000003 -0.000006 0.000001 0.031340 -0.007202 -0.002430 -0.000005 -0.000003 0.000002 0.068120 -0.030195 0.004970 -0.000001 0.000002 0.000000 0.000000 -0.023813 0.174980 0.841223 8.408382 2.849951 0.000000 -0.019587 0.050440 -0.163081 -11.677058 7.801749 -0.000000 -0.019588 0.050430 0.000001 0.000002 0.000002 -0.022736 -0.040321 0.103830 2.589505 -16.392111 10.684916 -0.153024 0.002309 0.011300 14.531852 -66.400886 11.481900 -0.241950 0.007860 -0.005970 -10.904049 20.690574 49.385813 -0.238400 -0.007281 0.006770 -15.681173 12.328245 -9.005604 -0.033730 -0.028850 -0.003480 0.000003 -0.000003 0.000001 -0.031340 -0.007202 -0.002430 -0.000001 0.000000 0.000003 -0.068120 -0.030195 0.004970 0.000001 0.000001 0.000002 0.000000 0.000000 -0.000000 0.000017 -0.000030 0.000007 -0.101380 0.008274 -0.008086 -29.203894 0.653143 1.035287 -0.013850 -0.032449 -0.392864 58.120170 -0.626811 -1.316811 -0.009830 0.014699 -0.407220 0.760222 1.243661 -11.933973 -0.012880 -0.130787 -0.044930 -0.000003 -0.000000 0.000002 
0.648926 2.154593 0.877187 14.080114 -7.211551 -49.334583 0.000000 0.000000 -0.000000 0.000021 0.000031 -0.000003 0.101380 0.008274 -0.008086 -26.478878 1.688892 8.876566 0.013850 -0.032449 -0.392864 46.629476 0.529368 0.916408 0.009830 0.014700 -0.407220 -17.526851 -7.209895 19.595268 0.012880 -0.130788 -0.044930 -0.000004 0.000002 -0.000000 0.000000 0.038733 0.079770 9.417531 0.949618 1.172436 -0.000000 -0.017149 0.141310 0.000005 0.000002 0.000002 -0.000000 0.010320 0.143920 -4.984573 -5.111144 0.083095 0.022736 -0.040321 0.103830 2.589511 16.392165 -10.684911 0.153024 0.002309 0.011300 -3.956119 60.431192 -2.326549 0.241950 0.007860 -0.005970 -7.358146 -16.320959 -38.384816 0.238400 -0.007281 0.006769 6.085118 -5.893194 6.141085 0.033730 -0.028850 -0.003480 -0.000003 -0.000008 -0.000000 0.031340 -0.007202 -0.002430 -0.000003 0.000003 0.000002 0.068120 -0.030195 0.004970 -0.000005 -0.000002 0.000003 0.000000 -0.023813 0.174980 1.296969 8.912506 3.154966 -0.000000 -0.019587 0.050440 -0.940637 -11.278321 8.547545 0.000000 -0.019588 0.050430 -0.000004 -0.000000 0.000001 -0.022736 -0.040321 0.103830 2.589508 -16.392116 10.684923 -0.153024 0.002309 0.011300 14.871451 -60.651274 10.390885 -0.241950 0.007860 -0.005970 -11.013981 20.335218 47.932772 -0.238400 -0.007281 0.006770 -14.270844 11.861556 -8.896690 -0.033730 -0.028850 -0.003480 0.000009 0.000000 -0.000001 -0.031340 -0.007202 -0.002430 0.000001 -0.000001 0.000004 -0.068120 -0.030195 0.004970 -0.000001 -0.000005 -0.000004 0.000000 0.000000 -0.000000 0.000022 -0.000033 0.000009 -0.101380 0.008274 -0.008086 -32.099215 1.039988 1.220552 -0.013850 -0.032449 -0.392864 58.978492 -0.636806 -1.363596 -0.009830 0.014699 -0.407220 1.127471 1.419434 -13.819637 -0.012880 -0.130787 -0.044930 0.000000 0.000000 0.000002 
0.641503 2.123157 0.876542 14.499091 -7.852891 -48.333492 -0.000000 -0.000000 0.000000 0.000019 0.000030 -0.000005 0.101380 0.008274 -0.008086 -24.856344 3.133151 8.461079 0.013850 -0.032449 -0.392864 46.323630 0.527280 0.893993 0.009830 0.014700 -0.407220 -16.761873 -7.008639 19.860259 0.012880 -0.130788 -0.044930 0.000001 0.000001 0.000001 -0.000000 0.038733 0.079770 9.961641 1.564588 0.017914 -0.000000 -0.017149 0.141310 0.000002 0.000000 -0.000000 0.000000 0.010320 0.143920 -5.180701 -5.212972 -0.232220 0.022736 -0.040321 0.103830 2.589510 16.392165 -10.684914 0.153024 0.002309 0.011300 -2.925664 59.183712 -4.873399 0.241950 0.007860 -0.005970 -7.473597 -16.471727 -38.715565 0.238400 -0.007281 0.006770 6.163983 -5.872258 6.126455 0.033730 -0.028850 -0.003480 -0.000006 -0.000004 -0.000001 0.031340 -0.007202 -0.002430 -0.000013 -0.000001 0.000000 0.068120 -0.030195 0.004970 -0.000005 0.000000 0.000002 0.000000 -0.023813 0.174980 1.057388 8.487751 3.254117 0.000000 -0.019587 0.050440 -1.070100 -11.288985 8.574117 -0.000000 -0.019588 0.050430 0.000002 -0.000001 0.000002 -0.022736 -0.040321 0.103830 2.589508 -16.392114 10.684923 -0.153024 0.002309 0.011300 14.288206 -61.525511 10.135817 -0.241950 0.007860 -0.005970 -11.081009 20.396779 48.094272 -0.238400 -0.007281 0.006770 -13.924183 11.753229 -8.867990 -0.033730 -0.028850 -0.003480 -0.000002 -0.000003 0.000001 -0.031340 -0.007202 -0.002430 -0.000000 0.000000 0.000002 -0.068120 -0.030195 0.004970 0.000004 0.000001 -0.000001 -0.000000 -0.000000 0.000000 0.000019 -0.000032 0.000010 -0.101380 0.008274 -0.008086 -36.503939 0.577644 1.087718 -0.013850 -0.032449 -0.392864 61.399542 -0.666627 -1.368079 -0.009830 0.014699 -0.407220 -2.730361 2.594966 -14.519251 -0.012880 -0.130787 -0.044930 -0.000002 -0.000001 -0.000006 
0.635755 2.093521 0.880964 16.261765 -9.494767 -45.633153 0.000000 -0.000000 -0.000000 0.000017 0.000031 -0.000008 0.101380 0.008274 -0.008086 -28.247373 3.775910 6.542755 0.013850 -0.032449 -0.392864 46.134144 0.523629 0.915773 0.009830 0.014700 -0.407220 -13.606793 -4.182597 13.880528 0.012880 -0.130788 -0.044930 -0.000000 0.000002 0.000006 0.000000 0.038733 0.079770 9.080942 2.270151 -2.342611 0.000000 -0.017149 0.141310 -0.000001 -0.000001 -0.000001 0.000000 0.010320 0.143920 -5.483271 -6.198704 -0.936601 0.022736 -0.040321 0.103830 2.589510 16.392165 -10.684911 0.153024 0.002309 0.011300 -1.698559 57.194150 -8.550697 0.241950 0.007860 -0.005970 -7.276389 -16.213517 -38.150838 0.238400 -0.007281 0.006770 4.499564 -6.319122 6.429253 0.033730 -0.028850 -0.003480 0.000001 -0.000005 -0.000000 0.031340 -0.007202 -0.002430 -0.000003 -0.000002 0.000000 0.068120 -0.030195 0.004970 0.000000 0.000001 0.000001 -0.000000 -0.023813 0.174980 0.932668 8.592445 3.333286 0.000000 -0.019587 0.050440 -1.615847 -11.613904 8.700975 -0.000000 -0.019588 0.050430 -0.000002 -0.000000 -0.000003 -0.022736 -0.040321 0.103830 2.589505 -16.392114 10.684923 -0.153024 0.002309 0.011300 15.196401 -61.574640 10.975670 -0.241950 0.007860 -0.005970 -10.999086 20.321353 47.896445 -0.238400 -0.007281 0.006770 -13.616468 11.657085 -8.841952 -0.033730 -0.028850 -0.003480 0.000003 -0.000003 -0.000003 -0.031340 -0.007202 -0.002430 -0.000002 -0.000005 -0.000000 -0.068120 -0.030195 0.004970 0.000004 0.000001 0.000001 0.000000 -0.000000 -0.000000 0.000019 -0.000032 0.000004 -0.101380 0.008274 -0.008086 -42.392573 -0.086423 0.120483 -0.013850 -0.032449 -0.392864 61.965812 -0.678031 -1.336558 -0.009830 0.014699 -0.407220 -5.488959 3.037306 -12.932848 -0.012880 -0.130787 -0.044930 0.000002 -0.000001 -0.000004 
0.620940 2.049039 0.893611 16.516724 -9.416437 -45.365290 0.000000 0.000000 -0.000000 0.000021 0.000031 -0.000008 0.101380 0.008274 -0.008086 -29.055864 4.509568 2.445351 0.013850 -0.032449 -0.392864 47.584914 0.536334 0.978789 0.009830 0.014700 -0.407220 -12.959830 2.776627 -13.666022 0.012880 -0.130788 -0.044930 -0.000001 0.000004 0.000001 0.000000 0.038733 0.079770 10.137762 2.501814 -2.673298 -0.000000 -0.017149 0.141310 0.000002 0.000001 0.000001 0.000000 0.010320 0.143920 -5.601168 -5.998840 -1.002293 0.022736 -0.040321 0.103830 2.589510 16.392165 -10.684915 0.153024 0.002309 0.011300 -0.931687 55.837975 -11.850036 0.241950 0.007860 -0.005970 -7.131676 -16.020798 -37.733045 0.238400 -0.007281 0.006770 4.263891 -6.383147 6.471106 0.033730 -0.028850 -0.003480 -0.000004 0.000002 -0.000000 0.031340 -0.007202 -0.002430 -0.000008 0.000003 0.000002 0.068120 -0.030195 0.004970 -0.000001 0.000002 -0.000000 0.000000 -0.023813 0.174980 0.881491 8.765065 3.274355 0.000000 -0.019587 0.050440 -2.187831 -12.236050 8.576661 0.000000 -0.019588 0.050430 -0.000003 -0.000001 0.000001 -0.022736 -0.040321 0.103830 2.589509 -16.392116 10.684921 -0.153024 0.002309 0.011300 17.936627 -61.828997 13.009688 -0.241950 0.007860 -0.005970 -11.147099 20.457199 48.253162 -0.238400 -0.007281 0.006770 -16.745797 12.640559 -9.082255 -0.033730 -0.028850 -0.003480 0.000007 -0.000001 0.000004 -0.031340 -0.007202 -0.002430 0.000003 -0.000001 0.000002 -0.068120 -0.030195 0.004970 0.000002 -0.000002 -0.000001 0.000000 0.000000 -0.000000 0.000020 -0.000033 0.000004 -0.101380 0.008275 -0.008086 -44.619485 -1.128789 0.174716 -0.013850 -0.032449 -0.392864 60.181637 -0.662133 -1.282076 -0.009830 0.014699 -0.407220 -6.855551 2.889086 -11.145064 -0.012880 -0.130787 -0.044930 -0.000003 -0.000000 0.000005 
0.606334 2.007772 0.889742 16.857098 -9.548029 -45.495221 -0.000000 0.000000 -0.000000 0.000019 0.000032 -0.000007 0.101380 0.008274 -0.008086 -26.414544 6.396292 1.311514 0.013850 -0.032449 -0.392864 46.942818 0.532317 0.918817 0.009830 0.014700 -0.407220 -12.329892 1.755129 -10.505283 0.012880 -0.130788 -0.044930 -0.000002 -0.000001 0.000000 -0.000000 0.038733 0.079770 11.199741 2.503896 -3.030722 0.000000 -0.017149 0.141310 0.000001 0.000000 0.000002 -0.000000 0.010320 0.143920 -5.748533 -6.157092 -1.094899 0.022736 -0.040321 0.103830 2.589505 16.392169 -10.684918 0.153024 0.002309 0.011300 -0.486050 54.567454 -14.513817 0.241950 0.007860 -0.005970 -7.207135 -16.121707 -37.951413 0.238400 -0.007281 0.006770 4.014796 -6.451135 6.515063 0.033730 -0.028850 -0.003480 -0.000007 -0.000003 0.000003 0.031340 -0.007202 -0.002430 -0.000005 0.000002 0.000004 0.068120 -0.030195 0.004970 -0.000007 0.000004 0.000005 -0.000000 -0.023813 0.174980 1.121856 8.571330 3.306786 0.000000 -0.019587 0.050440 -3.231985 -12.415546 8.519126 -0.000000 -0.019588 0.050430 -0.000002 0.000000 0.000001 -0.022736 -0.040321 0.103830 2.589506 -16.392118 10.684915 -0.153024 0.002309 0.011300 19.236412 -61.686915 13.691280 -0.241950 0.007860 -0.005970 -10.964930 20.289538 47.812929 -0.238400 -0.007281 0.006770 -16.319398 12.505148 -9.052700 -0.033730 -0.028850 -0.003480 0.000002 -0.000003 -0.000001 -0.031340 -0.007202 -0.002430 -0.000001 -0.000000 -0.000000 -0.068120 -0.030195 0.004970 0.000001 0.000002 0.000001 -0.000000 0.000000 -0.000000 0.000017 -0.000029 0.000012 -0.101380 0.008274 -0.008086 -49.591965 -2.557792 -0.435182 -0.013850 -0.032449 -0.392864 59.812083 -0.659517 -1.264826 -0.009830 0.014699 -0.407220 -10.751802 2.446284 -6.620653 -0.012880 -0.130787 -0.044930 -0.000001 -0.000001 -0.000001 
